<svg width="134" height="142" viewBox="0 0 134 142" fill="none"><path opacity="0.5" d="M37.9976 138.999C37.9848 139.403 37.8895 139.8 37.7175 140.165C37.5456 140.531 37.3005 140.858 36.9976 141.125C36.3297 141.666 35.4861 141.942 34.6276 141.901C34.1512 141.924 33.6759 141.838 33.2374 141.651C32.799 141.463 32.4089 141.178 32.0966 140.818C31.4422 139.97 31.1165 138.913 31.1796 137.844V137.333C31.1645 136.602 31.3096 135.876 31.6046 135.207C31.8602 134.627 32.2833 134.136 32.8196 133.797C33.3725 133.462 34.0093 133.292 34.6556 133.306C35.5027 133.266 36.3345 133.542 36.9886 134.082C37.5995 134.645 37.9659 135.424 38.0096 136.254H36.2856C36.2864 135.82 36.1257 135.401 35.8346 135.079C35.5021 134.811 35.0794 134.68 34.6536 134.714C34.4037 134.698 34.1538 134.747 33.928 134.855C33.7021 134.963 33.5078 135.127 33.3636 135.332C33.0348 135.915 32.882 136.58 32.9236 137.248V137.88C32.8737 138.566 33.016 139.252 33.3346 139.862C33.4768 140.072 33.672 140.24 33.9003 140.35C34.1286 140.46 34.3819 140.508 34.6346 140.488C35.0638 140.522 35.4898 140.391 35.8266 140.123C36.1153 139.818 36.2766 139.414 36.2776 138.994L37.9976 138.999ZM50.7976 133.42V138.93C50.8178 139.332 50.7516 139.734 50.6034 140.109C50.4553 140.484 50.2286 140.822 49.9386 141.102C49.2894 141.663 48.448 141.949 47.5916 141.902C46.7457 141.947 45.9142 141.67 45.2646 141.126C44.9738 140.855 44.7448 140.524 44.5932 140.156C44.4415 139.788 44.3707 139.392 44.3856 138.995V133.42H46.1096V138.941C46.09 139.157 46.1149 139.375 46.1827 139.582C46.2504 139.788 46.3596 139.978 46.5036 140.141C46.8027 140.405 47.1942 140.54 47.5926 140.517C48.5619 140.517 49.0542 140.008 49.0696 138.989V133.42H50.7976ZM60.6466 138.72H59.2796V141.786H57.5556V133.42H60.6636C61.4796 133.368 62.2884 133.601 62.9506 134.081C63.2192 134.309 63.4312 134.597 63.57 134.92C63.7088 135.244 63.7706 135.596 63.7506 135.948C63.7689 136.45 63.6399 136.946 63.3796 137.376C63.102 137.783 62.7117 138.099 62.2566 138.287L64.0666 141.705V141.785H62.2166L60.6466 138.72ZM59.2736 137.32H60.6636C61.0285 137.343 61.3884 137.225 61.6686 136.99C61.7895 136.872 61.8839 136.73 61.9453 136.573C62.0067 136.416 62.0338 136.247 62.0246 136.079C62.0341 135.909 62.0092 135.739 61.9515 135.579C61.8938 135.419 61.8043 135.273 61.6886 135.148C61.5479 135.026 61.3843 134.933 61.2073 134.875C61.0302 134.816 60.8433 134.794 60.6576 134.809H59.2796L59.2736 137.32ZM74.7366 139.584C74.7444 139.44 74.7171 139.297 74.657 139.166C74.5969 139.036 74.5058 138.921 74.3916 138.834C74.0081 138.589 73.5897 138.402 73.1506 138.282C72.6619 138.133 72.1871 137.941 71.7316 137.71C71.3214 137.538 70.9693 137.252 70.7172 136.886C70.4651 136.52 70.3236 136.088 70.3096 135.644C70.3039 135.21 70.4378 134.787 70.6916 134.435C70.9729 134.06 71.3542 133.773 71.7916 133.605C72.3016 133.399 72.8476 133.297 73.3976 133.305C73.9483 133.295 74.4945 133.406 74.9976 133.63C75.4403 133.825 75.8181 134.143 76.0866 134.546C76.3465 134.946 76.4816 135.413 76.4746 135.89H74.7506C74.7599 135.724 74.7323 135.557 74.6697 135.403C74.6071 135.248 74.5111 135.11 74.3886 134.997C74.1006 134.769 73.7383 134.655 73.3716 134.678C73.0238 134.657 72.6788 134.751 72.3896 134.945C72.279 135.025 72.1894 135.13 72.1284 135.252C72.0675 135.374 72.037 135.509 72.0396 135.645C72.0429 135.785 72.0826 135.921 72.1546 136.041C72.2267 136.161 72.3287 136.26 72.4506 136.329C72.827 136.558 73.2341 136.732 73.6596 136.846C74.4498 137.041 75.1837 137.417 75.8026 137.946C76.0219 138.156 76.195 138.41 76.3107 138.691C76.4264 138.972 76.4822 139.274 76.4746 139.578C76.487 139.907 76.4186 140.234 76.2753 140.53C76.132 140.827 75.9182 141.083 75.6526 141.278C75.0025 141.72 74.2256 141.937 73.4406 141.896C72.8355 141.906 72.2352 141.787 71.6796 141.547C71.1931 141.345 70.7738 141.01 70.4706 140.579C70.1882 140.158 70.0416 139.661 70.0506 139.154H71.7796C71.7796 140.077 72.3312 140.539 73.4346 140.539C73.7726 140.559 74.1082 140.471 74.3936 140.289C74.5049 140.211 74.5948 140.106 74.6551 139.984C74.7153 139.862 74.7441 139.727 74.7386 139.591L74.7366 139.584ZM89.8426 137.784C89.8601 138.53 89.7119 139.272 89.4086 139.954C89.1437 140.547 88.7091 141.049 88.1596 141.395C87.5989 141.737 86.9524 141.913 86.2956 141.901C85.6422 141.912 84.999 141.739 84.4396 141.401C83.8892 141.058 83.4512 140.562 83.1796 139.973C82.87 139.305 82.7148 138.575 82.7256 137.839V137.425C82.7092 136.678 82.8598 135.936 83.1666 135.254C83.435 134.66 83.8726 134.159 84.4246 133.812C84.9845 133.473 85.6291 133.299 86.2836 133.312C86.9381 133.299 87.5827 133.473 88.1426 133.812C88.6942 134.159 89.1314 134.66 89.3996 135.254C89.7079 135.935 89.8599 136.676 89.8446 137.423L89.8426 137.784ZM88.0956 137.405C88.141 136.706 87.977 136.01 87.6246 135.405C87.4772 135.186 87.276 135.01 87.0405 134.891C86.8049 134.773 86.5429 134.718 86.2796 134.73C86.0173 134.719 85.7565 134.775 85.5221 134.893C85.2877 135.011 85.0875 135.187 84.9406 135.405C84.5879 136.002 84.4218 136.692 84.4636 137.384V137.792C84.4232 138.486 84.5869 139.177 84.9346 139.78C85.0788 140.006 85.28 140.191 85.518 140.315C85.756 140.439 86.0224 140.498 86.2906 140.487C86.5527 140.498 86.8133 140.442 87.0469 140.322C87.2806 140.203 87.4792 140.025 87.6236 139.806C87.9717 139.205 88.1355 138.515 88.0946 137.821L88.0956 137.405ZM100.78 139.591C100.787 139.447 100.76 139.304 100.7 139.173C100.64 139.043 100.549 138.928 100.435 138.841C100.051 138.596 99.6327 138.409 99.1936 138.289C98.7049 138.14 98.2301 137.948 97.7746 137.717C97.3621 137.546 97.0077 137.259 96.7542 136.891C96.5007 136.524 96.3588 136.09 96.3456 135.644C96.3399 135.21 96.4738 134.787 96.7276 134.435C97.0089 134.06 97.3902 133.773 97.8276 133.605C98.3376 133.399 98.8836 133.297 99.4336 133.305C99.9843 133.295 100.53 133.406 101.034 133.63C101.476 133.825 101.854 134.143 102.123 134.546C102.383 134.946 102.518 135.413 102.511 135.89H100.78C100.789 135.724 100.761 135.557 100.699 135.403C100.636 135.248 100.54 135.11 100.418 134.997C100.13 134.769 99.7673 134.655 99.4006 134.678C99.0528 134.657 98.7078 134.751 98.4186 134.945C98.308 135.025 98.2184 135.13 98.1574 135.252C98.0965 135.374 98.066 135.509 98.0686 135.645C98.0719 135.785 98.1116 135.921 98.1836 136.041C98.2557 136.161 98.3577 136.26 98.4796 136.329C98.856 136.558 99.2631 136.732 99.6886 136.846C100.479 137.041 101.213 137.417 101.832 137.946C102.051 138.156 102.224 138.41 102.34 138.691C102.455 138.972 102.511 139.274 102.504 139.578C102.516 139.907 102.448 140.234 102.304 140.53C102.161 140.827 101.947 141.083 101.682 141.278C101.031 141.72 100.255 141.937 99.4696 141.896C98.8652 141.904 98.266 141.784 97.7116 141.543C97.2251 141.341 96.8058 141.006 96.5026 140.575C96.2224 140.155 96.0772 139.659 96.0866 139.154H97.8156C97.8156 140.077 98.3672 140.539 99.4706 140.539C99.8086 140.559 100.144 140.471 100.43 140.289C100.542 140.211 100.633 140.107 100.694 139.985C100.755 139.863 100.785 139.727 100.78 139.591Z" fill="white"></path><path d="M17.328 110.515C17.3569 109.984 17.256 109.455 17.034 108.972C16.812 108.489 16.4756 108.068 16.054 107.744C14.6364 106.837 13.09 106.15 11.467 105.705C9.66064 105.154 7.90567 104.447 6.22202 103.592C2.71068 101.695 0.955018 99.1393 0.955018 95.926C0.933652 94.323 1.42873 92.7558 2.36702 91.456C3.40422 90.0726 4.8098 89.0091 6.42302 88.387C8.30874 87.6289 10.3269 87.2549 12.359 87.287C14.3897 87.2511 16.4036 87.6607 18.259 88.487C19.8953 89.2101 21.2913 90.3851 22.283 91.874C23.2447 93.3495 23.745 95.078 23.72 96.839H17.348C17.3825 96.2243 17.2804 95.6095 17.0491 95.0389C16.8177 94.4684 16.4629 93.9561 16.01 93.539C14.9456 92.6953 13.6066 92.2754 12.251 92.36C10.9652 92.2821 9.68945 92.6289 8.62002 93.347C8.20827 93.642 7.87467 94.033 7.64814 94.486C7.42161 94.9391 7.30898 95.4406 7.32002 95.947C7.33248 96.4636 7.47894 96.9681 7.74505 97.4111C8.01116 97.8541 8.38778 98.2203 8.83802 98.474C10.2298 99.3199 11.7349 99.9634 13.308 100.385C16.932 101.475 19.5724 102.827 21.229 104.441C22.0397 105.218 22.6794 106.156 23.1073 107.195C23.5352 108.233 23.7418 109.349 23.714 110.472C23.7628 111.691 23.5114 112.902 22.9818 114.001C22.4522 115.1 21.6607 116.051 20.677 116.772C18.2744 118.406 15.4026 119.208 12.501 119.055C10.2663 119.085 8.05083 118.639 6.00102 117.749C4.20233 117.004 2.65224 115.763 1.53102 114.171C0.491741 112.614 -0.0456945 110.776 -0.00897892 108.904H6.38302C6.38302 112.316 8.42168 114.022 12.499 114.022C13.7488 114.095 14.9897 113.771 16.045 113.098C16.4583 112.81 16.7924 112.422 17.0166 111.97C17.2408 111.519 17.3479 111.019 17.328 110.515ZM34.975 90.001V95.65H38.904V100.15H34.975V111.619C34.9158 112.266 35.0888 112.914 35.463 113.445C35.7203 113.66 36.0189 113.82 36.3403 113.915C36.6618 114.009 36.9993 114.038 37.332 113.997C37.937 114.003 38.5412 113.953 39.137 113.848V118.499C37.9328 118.867 36.6803 119.053 35.421 119.051C31.117 119.051 28.9227 116.878 28.838 112.532V100.152H25.483V95.652H28.838V90.003L34.975 90.001ZM55.638 118.627C55.325 117.977 55.1171 117.282 55.022 116.567C54.297 117.382 53.4015 118.027 52.3991 118.456C51.3967 118.886 50.3119 119.089 49.222 119.052C47.1763 119.126 45.1774 118.429 43.622 117.098C42.9089 116.494 42.3397 115.738 41.9558 114.885C41.5719 114.033 41.3831 113.106 41.403 112.171C41.3486 111.085 41.5681 110.002 42.0413 109.022C42.5145 108.043 43.2262 107.198 44.111 106.565C45.9163 105.262 48.525 104.604 51.937 104.59H54.761V103.273C54.8076 102.352 54.5168 101.446 53.943 100.725C53.6105 100.385 53.2066 100.122 52.7604 99.9571C52.3143 99.7918 51.837 99.7276 51.363 99.769C50.4896 99.7177 49.6267 99.9814 48.931 100.512C48.6384 100.762 48.407 101.076 48.2543 101.429C48.1016 101.783 48.0317 102.166 48.05 102.551H41.913C41.9145 101.218 42.3478 99.9218 43.148 98.856C44.0434 97.6658 45.2481 96.744 46.631 96.191C48.2321 95.5273 49.9521 95.1986 51.685 95.225C54.1169 95.094 56.5134 95.8526 58.427 97.359C59.2691 98.1059 59.9313 99.0336 60.3642 100.073C60.7972 101.112 60.9896 102.235 60.927 103.359V113.319C60.8444 115.017 61.157 116.711 61.84 118.267V118.628L55.638 118.627ZM50.563 114.359C51.4355 114.367 52.2964 114.159 53.069 113.754C53.7866 113.396 54.3792 112.83 54.769 112.129V108.179H52.475C49.403 108.179 47.7677 109.241 47.569 111.364L47.548 111.725C47.5381 112.08 47.6051 112.432 47.7444 112.758C47.8837 113.085 48.092 113.377 48.355 113.615C48.9681 114.137 49.7588 114.404 50.563 114.359ZM78.548 101.405C77.8192 101.301 77.0842 101.246 76.348 101.239C74.026 101.239 72.504 102.025 71.782 103.596V118.631H65.645V95.65H71.445L71.615 98.389C72.0869 97.4358 72.8166 96.634 73.7213 96.0747C74.626 95.5154 75.6694 95.221 76.733 95.225C77.3803 95.2203 78.0245 95.3133 78.644 95.501L78.548 101.405ZM89.909 90.005V95.654H93.838V100.154H89.909V111.619C89.8498 112.266 90.0228 112.914 90.397 113.445C90.6543 113.66 90.9529 113.82 91.2743 113.915C91.5958 114.009 91.9333 114.038 92.266 113.997C92.871 114.003 93.4753 113.953 94.071 113.848V118.499C92.8668 118.867 91.6143 119.053 90.355 119.051C86.051 119.051 83.8567 116.878 83.772 112.532V100.152H80.417V95.652H83.772V90.003L89.909 90.005ZM107.832 119.056C106.323 119.117 104.817 118.873 103.403 118.341C101.989 117.808 100.697 116.997 99.603 115.956C98.5316 114.873 97.6964 113.58 97.1499 112.158C96.6034 110.736 96.3576 109.217 96.428 107.695V107.1C96.3911 104.961 96.849 102.843 97.766 100.91C98.5902 99.1684 99.9086 97.7077 101.557 96.71C103.251 95.7096 105.19 95.1987 107.157 95.234C108.536 95.1628 109.913 95.3918 111.195 95.9051C112.476 96.4184 113.631 97.2038 114.579 98.207C116.384 100.189 117.287 102.999 117.287 106.638V109.139H102.655C102.793 110.521 103.431 111.804 104.449 112.749C105.491 113.672 106.849 114.158 108.24 114.108C109.302 114.156 110.361 113.948 111.325 113.501C112.29 113.054 113.133 112.381 113.783 111.539L116.799 114.916C115.846 116.246 114.555 117.297 113.061 117.963C111.421 118.705 109.637 119.077 107.837 119.052L107.832 119.056ZM107.132 100.198C106.579 100.178 106.028 100.277 105.516 100.49C105.005 100.703 104.546 101.023 104.17 101.43C103.336 102.429 102.828 103.659 102.715 104.955H111.252V104.467C111.3 103.312 110.905 102.183 110.148 101.309C109.751 100.923 109.279 100.625 108.76 100.433C108.241 100.241 107.688 100.16 107.136 100.194L107.132 100.198ZM133.677 101.408C132.945 101.302 132.207 101.246 131.468 101.238C129.146 101.238 127.624 102.024 126.902 103.595V118.63H120.769V95.65H126.569L126.739 98.389C127.211 97.4358 127.941 96.634 128.845 96.0747C129.75 95.5154 130.793 95.221 131.857 95.225C132.504 95.2203 133.149 95.3133 133.768 95.501L133.677 101.408Z" fill="white"></path><path fill-rule="evenodd" clip-rule="evenodd" d="M44.6641 61.2H89.8641C91.9851 61.1976 94.0185 60.354 95.5183 58.8542C97.0181 57.3545 97.8617 55.321 97.8641 53.2V8C97.8617 5.879 97.0181 3.84555 95.5183 2.34578C94.0185 0.846002 91.9851 0.00238211 89.8641 0H44.6641C42.5431 0.00238211 40.5096 0.846002 39.0098 2.34578C37.5101 3.84555 36.6664 5.879 36.6641 8V53.2C36.6664 55.321 37.5101 57.3545 39.0098 58.8542C40.5096 60.354 42.5431 61.1976 44.6641 61.2ZM77.763 11.0083L83.0006 11.788C83.3725 11.8504 83.5275 12.2559 83.2795 12.6301L80.7692 15.7803C80.5213 16.0298 80.6762 16.4665 81.0172 16.5288L82.6287 16.9031C83.1866 17.0279 83.4035 17.6829 83.0626 18.1195L75.7796 27.5076L74.8188 28.7552C74.6019 29.0359 74.23 29.1294 73.9201 28.9735L71.8436 28.0066C71.5957 27.8819 71.2548 27.913 71.0378 28.1314L69.6432 29.4413C69.4263 29.6597 69.0854 29.722 68.8064 29.5661L67.9697 29.1294C67.7217 28.9735 67.3808 29.0359 67.1639 29.223L64.4056 31.6558C64.0027 31.9989 63.4139 32.0613 62.949 31.7806L61.3065 30.7513L57.9284 28.6616L56.8747 28.0066C56.4098 27.7259 56.1928 27.1957 56.3168 26.6655L56.8127 24.451C56.9366 23.9832 57.4635 23.7336 57.8974 23.952L58.5792 24.2951C58.8271 24.4198 59.137 24.3886 59.354 24.2327L60.7486 23.2658C60.9656 23.1098 61.2445 23.0787 61.4924 23.2034L64.2507 24.451C64.4676 24.5446 64.7155 24.4822 64.8395 24.2951L72.0916 14.9382C72.2775 14.6887 72.5874 14.5951 72.8663 14.6575L74.6949 15.0629C74.9118 15.0941 75.0977 14.907 75.0358 14.6887C74.9738 14.4703 75.0048 14.2208 75.1597 14.0337L77.3911 11.1019C77.4531 11.0395 77.6081 10.9771 77.763 11.0083ZM58.9816 30.6889C58.8266 30.5953 58.6716 30.7513 58.7336 30.9072L59.5084 32.9657C59.5704 33.1217 59.5704 33.2776 59.5394 33.4336L58.8576 36.1159C58.8266 36.303 58.8886 36.4902 59.0126 36.5837L60.965 38.112C61.151 38.2368 61.3989 38.2368 61.5539 38.0808L63.5993 36.2718C63.7233 36.1783 63.8782 36.1159 64.0022 36.0847L66.3266 35.8352C66.4815 35.804 66.5435 35.5857 66.3886 35.4921L58.9816 30.6889ZM57.8351 37.5507C57.9901 37.4883 58.176 37.5195 58.3 37.6131L60.4074 39.2349C60.5004 39.3285 60.5624 39.4532 60.5624 39.6092L60.3764 41.9796C60.3454 42.1044 60.3144 42.1979 60.2215 42.2915L51.1409 51.4612C51.0789 51.5548 50.955 51.4612 51.017 51.3677L53.5273 47.2194C53.5583 47.1883 53.5273 47.1259 53.4963 47.0947H53.4033L52.5975 47.4066C52.5355 47.4066 52.5046 47.3754 52.4736 47.3442V47.2818L55.9756 38.5799C56.0376 38.4864 56.0996 38.3928 56.1926 38.3616L57.8351 37.5507Z" fill="#7159C1"></path></svg>